{
	"asset":{
		"generator":"Khronos glTF Blender I/O v4.0.44",
		"version":"2.0"
	},
	"scene":0,
	"scenes":[
		{
			"name":"Scene",
			"nodes":[
				1
			]
		}
	],
	"nodes":[
		{
			"mesh":0,
			"name":"VR",
			"rotation":[
				0,
				0.03622736036777496,
				0,
				0.9993435740470886
			],
			"translation":[
				-0.022722415626049042,
				0.36477988958358765,
				-0.4776751399040222
			]
		},
		{
			"children":[
				0
			],
			"mesh":1,
			"name":"Racoon",
			"rotation":[
				0,
				0,
				-1,
				0
			],
			"scale":[
				-1,
				-1,
				-1
			]
		}
	],
	"materials":[
		{
			"doubleSided":true,
			"name":"MapacheMaterial",
			"pbrMetallicRoughness":{
				"baseColorTexture":{
					"index":0
				},
				"metallicFactor":0,
				"roughnessFactor":0.5
			}
		}
	],
	"meshes":[
		{
			"name":"Plane.001",
			"primitives":[
				{
					"attributes":{
						"POSITION":0,
						"NORMAL":1,
						"TEXCOORD_0":2
					},
					"indices":3,
					"material":0
				}
			]
		},
		{
			"name":"Plane",
			"primitives":[
				{
					"attributes":{
						"POSITION":4,
						"NORMAL":5,
						"TEXCOORD_0":6
					},
					"indices":7,
					"material":0
				}
			]
		}
	],
	"textures":[
		{
			"sampler":0,
			"source":0
		}
	],
	"images":[
		{
			"mimeType":"image/png",
			"name":"MapacheTex",
			"uri":"MapacheTex.png"
		}
	],
	"accessors":[
		{
			"bufferView":0,
			"componentType":5126,
			"count":1212,
			"max":[
				0.6426055431365967,
				0.3084828853607178,
				0.7218533754348755
			],
			"min":[
				-0.6415309906005859,
				-0.2821040153503418,
				-0.29215002059936523
			],
			"type":"VEC3"
		},
		{
			"bufferView":1,
			"componentType":5126,
			"count":1212,
			"type":"VEC3"
		},
		{
			"bufferView":2,
			"componentType":5126,
			"count":1212,
			"type":"VEC2"
		},
		{
			"bufferView":3,
			"componentType":5123,
			"count":1212,
			"type":"SCALAR"
		},
		{
			"bufferView":4,
			"componentType":5126,
			"count":1146,
			"max":[
				0.6321588754653931,
				0.6949118971824646,
				0.9333757162094116
			],
			"min":[
				-0.5922684073448181,
				-0.7816345691680908,
				-1.0372862815856934
			],
			"type":"VEC3"
		},
		{
			"bufferView":5,
			"componentType":5126,
			"count":1146,
			"type":"VEC3"
		},
		{
			"bufferView":6,
			"componentType":5126,
			"count":1146,
			"type":"VEC2"
		},
		{
			"bufferView":7,
			"componentType":5123,
			"count":1146,
			"type":"SCALAR"
		}
	],
	"bufferViews":[
		{
			"buffer":0,
			"byteLength":14544,
			"byteOffset":0,
			"target":34962
		},
		{
			"buffer":0,
			"byteLength":14544,
			"byteOffset":14544,
			"target":34962
		},
		{
			"buffer":0,
			"byteLength":9696,
			"byteOffset":29088,
			"target":34962
		},
		{
			"buffer":0,
			"byteLength":2424,
			"byteOffset":38784,
			"target":34963
		},
		{
			"buffer":0,
			"byteLength":13752,
			"byteOffset":41208,
			"target":34962
		},
		{
			"buffer":0,
			"byteLength":13752,
			"byteOffset":54960,
			"target":34962
		},
		{
			"buffer":0,
			"byteLength":9168,
			"byteOffset":68712,
			"target":34962
		},
		{
			"buffer":0,
			"byteLength":2292,
			"byteOffset":77880,
			"target":34963
		}
	],
	"samplers":[
		{
			"magFilter":9729,
			"minFilter":9987
		}
	],
	"buffers":[
		{
			"byteLength":80172,
			"uri":"Racoon.bin"
		}
	]
}
